# xmcd CD database file
#
# Track frame offsets:
#	150
#	19856
#	47530
#	68824
#
# Disc length: 1203 seconds
#
# Revision: 0
# Processed by: cddbd v1.5.1PL2 Copyright (c) Steve Scherf et al.
# Submitted via: CDex 1.51
#
DISCID=2b04b104
DTITLE=ロクセンチ - レイトショーを観にいこう（ワーナーマイカル限定版）
DYEAR=2005
DGENRE=Pop
TTITLE0=レイトショーを観にいこう(single mix)
TTITLE1=ポプラ
TTITLE2=夕凪オレンジ
TTITLE3=夏休みは八月になると早い
EXTD=YEAR: 2005
EXTT0=
EXTT1=
EXTT2=
EXTT3=
PLAYORDER=
